<svg width="120" height="46" viewBox="0 0 120 46" fill="none" xmlns="http://www.w3.org/2000/svg">
<path d="M43.2467 12.0774V41.555C43.2467 42.6961 42.3215 43.6213 41.1803 43.6213H41.0158C39.8747 43.6213 38.9495 42.6961 38.9495 41.555V12.0222L38.9514 11.9129C38.9729 11.4465 39.0467 7.80542 36.3887 5.70168C33.7504 3.61383 29.6579 3.86149 26.6486 6.28673L7.22426 23.2138C6.19715 24.354 4.91304 26.2269 4.46164 28.797C3.53547 34.0596 6.93267 37.9176 7.07753 38.0783C10.1411 41.4905 14.2654 41.7148 15.4607 41.7054C19.8158 41.6596 22.6925 39.0503 23.4682 38.254L23.5831 38.1428L30.2121 32.2335C30.9897 31.4101 31.0215 30.0877 30.2775 29.2578C29.5607 28.4615 28.3243 28.3232 27.4215 28.925L20.1934 35.4325C18.9841 36.74 17.2738 37.5157 15.4803 37.5643C13.6757 37.6148 11.9261 36.9269 10.6859 35.6783C9.41771 34.3998 8.74482 32.6101 8.83734 30.7624C8.93173 28.9017 9.80089 27.1596 11.2243 25.9755L26.8729 12.0391V12.0222C26.8729 10.4671 27.928 9.08486 29.4448 8.73906C31.856 8.19046 33.5934 10.1867 33.6224 12.0222C33.6439 13.3363 32.7859 14.254 32.556 14.483C32.2813 14.7278 31.4261 15.4213 30.2467 15.397C30.0476 15.3933 29.8448 15.368 29.6448 15.3241L14.0514 29.2101C14.0299 29.2288 14.0074 29.2475 13.9859 29.2662C13.2878 29.84 13.1495 30.5867 13.1289 30.9821C13.0972 31.6213 13.3177 32.2306 13.7345 32.6503C14.1429 33.0615 14.7345 33.2849 15.3626 33.269C16.0271 33.2503 16.6345 32.9708 17.071 32.4792C17.1233 32.4204 17.1803 32.3624 17.2392 32.311L24.6411 25.6465C24.6953 25.5979 24.7523 25.5503 24.8112 25.5082C27.4766 23.5596 31.2803 23.9465 33.471 26.3858C35.7616 28.9363 35.6523 32.8512 33.2215 35.2989C33.1897 35.3288 33.1588 35.3596 33.1271 35.3886L26.4878 41.3092C25.071 42.7447 21.2719 45.9409 15.5028 45.9998H15.3859C13.6009 45.9998 8.05136 45.597 3.87846 40.9475C3.37098 40.3821 -1.03556 35.226 0.226125 28.0512C0.87005 24.3923 2.70743 21.7727 4.1364 20.2194C4.19061 20.1606 4.24575 20.1045 4.3065 20.054L23.8523 3.02037C23.871 3.00355 23.8897 2.9886 23.9093 2.97271C28.4701 -0.732901 34.8383 -1.00486 39.0523 2.32972C43.2542 5.65402 43.2897 10.9054 43.242 12.0727L43.2467 12.0774Z" fill="white"/>
<path d="M48.9682 21.111C49.9972 22.2466 51.4009 22.9578 52.9196 23.1138C52.9887 23.1213 53.0579 23.1251 53.1271 23.1251H57.9878C59.47 22.9503 60.6598 24.1297 60.6112 25.312C60.5682 26.355 59.5626 27.3428 58.2654 27.3335L50.1186 27.2774C49.0981 27.4924 48.3915 28.4353 48.47 29.4559C48.5457 30.4438 49.3355 31.2522 50.3392 31.3522L58.2056 31.4064C59.9598 31.4737 61.6766 30.798 62.9242 29.5475C64.1616 28.3064 64.8242 26.6167 64.7411 24.912C64.6588 23.2447 63.8644 21.6512 62.5607 20.541C61.2663 19.4372 59.5682 18.8989 57.8869 19.0522H53.2495C52.2308 18.9036 51.4467 18.0213 51.4476 17.0054C51.4495 15.9484 52.3121 15.0372 53.3822 14.9503L61.3355 14.9914C62.5327 15.0073 63.4934 14.0017 63.4411 12.8587C63.3906 11.7662 62.4308 10.8737 61.2878 10.9176L53.3299 10.8765C53.2897 10.8765 53.2476 10.8765 53.2065 10.8802C49.9401 11.0624 47.3785 13.7503 47.3738 16.9998C47.3719 18.5157 47.9373 19.9755 48.9682 21.111Z" fill="white"/>
<path d="M92.7719 3.79437C92.7719 2.66727 91.9355 1.74951 90.9075 1.74951C89.8794 1.74951 89.043 2.66633 89.043 3.79437V6.35231H87.9411C87.0093 6.35231 86.2523 7.17942 86.2523 8.19531C86.2523 9.21119 87.0103 10.0383 87.9411 10.0383H89.043V29.2822C89.043 30.4093 89.8794 31.3271 90.9075 31.3271C91.9355 31.3271 92.7719 30.4103 92.7719 29.2822V10.0383H94.914V6.35138H92.7719V3.79344V3.79437Z" fill="white"/>
<path d="M101.328 6.35303H99.6532V10.0399H101.328C102.26 10.0399 103.017 9.21284 103.017 8.19695C103.017 7.18106 102.259 6.35396 101.328 6.35396V6.35303Z" fill="white"/>
<path d="M97.312 1.75049C96.3055 1.75049 95.4868 2.63086 95.4868 3.71311V29.3664C95.4868 30.4486 96.3055 31.329 97.312 31.329C98.3186 31.329 99.1373 30.4486 99.1373 29.3664V3.71311C99.1373 2.63086 98.3186 1.75049 97.312 1.75049Z" fill="white"/>
<path d="M85.3541 11.0402C84.6822 10.7692 83.9308 10.8449 83.3429 11.2439C82.8261 11.5953 82.5168 12.1486 82.5168 12.7243V25.0869C82.5168 27.429 81.7411 27.9084 80.5775 27.9084C79.414 27.9084 78.6383 27.429 78.6383 25.0869V12.7243C78.6383 12.1486 78.3298 11.5953 77.8121 11.2439C77.2242 10.8449 76.4728 10.7692 75.8009 11.0402C75.0728 11.3346 74.6027 12.0122 74.6027 12.7664V25.0869C74.6027 27.429 73.827 27.9084 72.6635 27.9084C71.4999 27.9084 70.7242 27.429 70.7242 25.0869V12.7243C70.7242 12.1486 70.4158 11.5953 69.8981 11.2439C69.3102 10.8449 68.5588 10.7692 67.8869 11.0402C67.1588 11.3346 66.6887 12.0122 66.6887 12.7664V25.5047C66.6887 29.2664 68.8663 31.4243 72.6635 31.4243C74.3878 31.4243 75.6635 30.9383 76.6205 29.9056C77.5775 30.9383 78.8532 31.4243 80.5775 31.4243C84.3747 31.4243 86.5523 29.2664 86.5523 25.5047V12.7664C86.5523 12.0122 86.0822 11.3346 85.3541 11.0402Z" fill="white"/>
<path d="M117.01 27.2769C114.343 27.2628 111.198 27.2488 108.53 27.2348C107.168 27.2273 106.069 26.1217 106.069 24.761V23.1161C108.35 23.1273 112.962 23.147 113.694 23.1255C113.743 23.1236 113.815 23.1236 113.902 23.1152C115.421 22.9591 116.824 22.2479 117.853 21.1124C118.884 19.9769 119.449 18.517 119.447 17.0012C119.443 13.7507 116.88 11.0628 113.615 10.8806C113.574 10.8778 113.532 10.8769 113.492 10.8778C111.085 10.8806 108.509 10.8834 106.103 10.8871C103.763 10.8899 101.867 12.7881 101.867 15.1283V24.9245C101.863 25.4797 101.926 26.0058 102.043 26.4806C102.293 27.6217 102.873 28.6918 103.728 29.5479C104.976 30.7993 106.692 31.475 108.447 31.4077L116.791 31.3535C117.793 31.2544 118.584 30.4451 118.66 29.4582C118.738 28.4367 118.032 27.4937 117.011 27.2787L117.01 27.2769ZM107.995 14.7114H113.162C114.401 14.7114 115.406 15.9068 115.406 17.147C115.406 18.3862 114.401 19.3909 113.162 19.3909H106.068V16.6376C106.068 15.5741 106.931 14.7114 107.994 14.7114H107.995Z" fill="white"/>
<path d="M59.5645 41.2803C59.5645 41.7654 59.2916 42.0083 58.7458 42.0083H56.2384C55.6926 42.0083 55.4197 41.7663 55.4197 41.2803V36.8569C55.4197 36.3719 55.6926 36.1289 56.2384 36.1289H58.7458C59.2916 36.1289 59.5645 36.3719 59.5645 36.8569V38.7252C59.5645 38.9102 59.487 39.0869 59.3515 39.2121C59.2318 39.3224 59.0748 39.3831 58.9131 39.3831H56.8094V41.0308H58.1748V40.0532H58.9683C59.2982 40.0532 59.5655 40.3233 59.5655 40.656V41.2822L59.5645 41.2803ZM58.1739 38.5158V37.1074H56.8085V38.5158H58.1739Z" fill="white"/>
<path d="M69.4328 36.5775L68.2262 41.7383C68.1879 41.9027 68.0421 42.0196 67.8739 42.0196H67.1832C67.0131 42.0196 66.8655 41.899 66.83 41.7308L66.1991 38.7654L65.5683 41.7308C65.5328 41.899 65.3851 42.0196 65.215 42.0196H64.5365C64.3683 42.0196 64.2225 41.9027 64.1842 41.7383L62.9776 36.5775C62.9244 36.3485 63.0963 36.1289 63.33 36.1289H63.9627C64.1365 36.1289 64.286 36.2541 64.3178 36.4261L64.9608 39.8831L65.5982 36.427C65.63 36.2541 65.7795 36.1289 65.9543 36.1289H66.458C66.6318 36.1289 66.7814 36.2541 66.8141 36.427L67.4515 39.8831L68.0945 36.4261C68.1262 36.2532 68.2758 36.1289 68.4496 36.1289H69.0823C69.316 36.1289 69.4879 36.3485 69.4346 36.5775H69.4328Z" fill="white"/>
<path d="M54.7766 36.5775L53.5701 41.7383C53.5318 41.9027 53.386 42.0196 53.2178 42.0196H52.5271C52.357 42.0196 52.2094 41.899 52.1738 41.7308L51.543 38.7654L50.9122 41.7308C50.8766 41.899 50.729 42.0196 50.5589 42.0196H49.8804C49.7122 42.0196 49.5664 41.9027 49.5281 41.7383L48.3215 36.5775C48.2682 36.3485 48.4402 36.1289 48.6738 36.1289H49.3066C49.4804 36.1289 49.6299 36.2541 49.6617 36.4261L50.3047 39.8831L50.9421 36.427C50.9738 36.2541 51.1234 36.1289 51.2981 36.1289H51.8019C51.9757 36.1289 52.1252 36.2541 52.158 36.427L52.7953 39.8831L53.4383 36.4261C53.4701 36.2532 53.6196 36.1289 53.7935 36.1289H54.4262C54.6598 36.1289 54.8318 36.3485 54.7785 36.5775H54.7766Z" fill="white"/>
<path d="M74.4832 41.2803C74.4832 41.7654 74.214 42.0083 73.6766 42.0083H71.0738C70.528 42.0083 70.2551 41.7663 70.2551 41.2803V36.8569C70.2551 36.3719 70.528 36.1289 71.0738 36.1289H73.6766C74.214 36.1289 74.4832 36.3719 74.4832 36.8569V41.2803ZM73.0607 40.9018V37.2411H71.6832V40.9018H73.0607Z" fill="white"/>
<path d="M78.8542 38.5847C78.4561 38.5847 78.1336 38.2595 78.1336 37.8576V37.2399L76.9841 37.2632V42.0071H75.5299V36.9249C75.5299 36.4277 75.929 36.0249 76.4215 36.0249H76.9832V36.3427C77.2832 36.2922 77.5822 36.2417 77.8785 36.1913C78.2383 36.1333 78.5383 36.1043 78.7804 36.1043C79.3093 36.1043 79.5738 36.3427 79.5738 36.8202V37.8567C79.5738 38.2585 79.2514 38.5838 78.8533 38.5838L78.8542 38.5847Z" fill="white"/>
<path d="M84.1505 42.0073H83.3243C83.2019 42.0073 83.0907 41.9362 83.0383 41.825L81.8486 39.3119V41.6867C81.8486 41.8633 81.7066 42.0073 81.5309 42.0073H80.7122C80.5365 42.0073 80.3944 41.8643 80.3944 41.6867V34.1418C80.3944 33.9652 80.5365 33.8213 80.7122 33.8213H81.5309C81.7066 33.8213 81.8486 33.9643 81.8486 34.1418V38.369L82.7552 36.6007C82.9038 36.3101 83.201 36.1278 83.5262 36.1278H84.5159V36.1512L83.0365 38.8232L84.4337 41.539C84.543 41.7521 84.3897 42.0063 84.1524 42.0063L84.1505 42.0073Z" fill="white"/>
<path d="M90.2224 34.9802H89.7271V36.1278H90.4C90.5393 36.1278 90.6542 36.2437 90.6542 36.3848V37.0063C90.6542 37.1475 90.5411 37.2624 90.4009 37.2624H89.7271V42.0063H88.286V37.2624H87.8794C87.7402 37.2624 87.6252 37.1465 87.6252 37.0054V36.3839C87.6252 36.2428 87.7383 36.1278 87.8785 36.1278H88.286V34.5493C88.286 34.0643 88.5551 33.8213 89.0925 33.8213H90.2215C90.5365 33.8213 90.7935 34.082 90.7935 34.4007C90.7935 34.7204 90.5374 34.9792 90.2224 34.9802Z" fill="white"/>
<path d="M95.5552 41.2803C95.5552 41.7654 95.286 42.0083 94.7486 42.0083H92.1458C91.6 42.0083 91.3271 41.7663 91.3271 41.2803V36.8569C91.3271 36.3719 91.6 36.1289 92.1458 36.1289H94.7486C95.286 36.1289 95.5552 36.3719 95.5552 36.8569V41.2803ZM94.1328 40.9018V37.2411H92.7552V40.9018H94.1328Z" fill="white"/>
<path d="M99.9262 38.5848C99.5281 38.5848 99.2057 38.2595 99.2057 37.8577V37.2399L98.0561 37.2633V42.0072H96.6019V36.6502C96.6019 36.3053 96.8795 36.0259 97.2216 36.0259H98.0561V36.3436C98.3561 36.2932 98.6552 36.2427 98.9515 36.1922C99.3113 36.1343 99.6113 36.1053 99.8533 36.1053C100.382 36.1053 100.647 36.3436 100.647 36.8212V37.8577C100.647 38.2595 100.324 38.5848 99.9262 38.5848Z" fill="white"/>
<path d="M108.215 36.1289C108.351 36.1289 108.451 36.2607 108.414 36.3934L106.881 41.9326L106.33 43.9224C106.292 44.0607 106.167 44.156 106.025 44.156H105.208C104.995 44.156 104.843 43.9485 104.906 43.7429L105.447 41.9616L103.895 36.3943C103.858 36.2616 103.957 36.1298 104.094 36.1298H105.148C105.245 36.1298 105.328 36.1981 105.35 36.2934L106.158 39.9953L106.966 36.2934C106.987 36.1981 107.071 36.1298 107.168 36.1298H108.216L108.215 36.1289Z" fill="white"/>
<path d="M113.433 41.2803C113.433 41.7654 113.164 42.0083 112.626 42.0083H110.023C109.478 42.0083 109.205 41.7663 109.205 41.2803V36.8569C109.205 36.3719 109.478 36.1289 110.023 36.1289H112.626C113.164 36.1289 113.433 36.3719 113.433 36.8569V41.2803ZM112.01 40.9018V37.2411H110.633V40.9018H112.01Z" fill="white"/>
<path d="M115.274 42.0419C114.745 42.0419 114.48 41.7999 114.48 41.3139V36.7036C114.48 36.3859 114.736 36.1279 115.051 36.1279H115.35C115.665 36.1279 115.921 36.3859 115.921 36.7036V40.9008L117.299 40.8719V36.7046C117.299 36.3868 117.555 36.1289 117.87 36.1289H118.176C118.491 36.1289 118.747 36.3868 118.747 36.7046V41.4335C118.747 41.7504 118.493 42.0074 118.178 42.0074H117.299" fill="white"/>
</svg>
